<svg width="22" height="17" viewBox="0 0 22 17" fill="none" xmlns="http://www.w3.org/2000/svg">
<path d="M21.5758 5.31988C21.8332 5.06229 21.8331 4.64482 21.5755 4.38743L17.3779 0.192975C17.1203 -0.0644176 16.7029 -0.064262 16.4455 0.193322C16.1881 0.450907 16.1882 0.868378 16.4458 1.12577L20.177 4.85417L16.4486 8.58536C16.1912 8.84294 16.1914 9.26041 16.4489 9.51781C16.7065 9.7752 17.124 9.77504 17.3814 9.51746L21.5758 5.31988ZM0.000244141 4.86169L0.000489866 5.52103L21.1097 5.51317L21.1094 4.85383L21.1092 4.19449L-1.58433e-06 4.20235L0.000244141 4.86169Z" fill="url(#paint0_linear_14_15)"/>
<path d="M21.5835 12.2432C21.8409 11.9856 21.8408 11.5682 21.5832 11.3108L17.3856 7.11631C17.128 6.85892 16.7105 6.85908 16.4532 7.11666C16.1958 7.37425 16.1959 7.79172 16.4535 8.04911L20.1847 11.7775L16.4563 15.5087C16.1989 15.7663 16.199 16.1838 16.4566 16.4411C16.7142 16.6985 17.1317 16.6984 17.3891 16.4408L21.5835 12.2432ZM0.00793457 11.785L0.0081803 12.4444L21.1174 12.4365L21.1171 11.7772L21.1169 11.1178L0.00768885 11.1257L0.00793457 11.785Z" fill="url(#paint1_linear_14_15)"/>
<defs>
<linearGradient id="paint0_linear_14_15" x1="0.000430482" y1="5.36169" x2="21.1096" y2="5.35383" gradientUnits="userSpaceOnUse">
<stop stop-color="#B58A4E"/>
<stop offset="0.5" stop-color="#FED6A0"/>
<stop offset="1" stop-color="#B58A4E"/>
</linearGradient>
<linearGradient id="paint1_linear_14_15" x1="0.00812091" y1="12.285" x2="21.1173" y2="12.2772" gradientUnits="userSpaceOnUse">
<stop stop-color="#B58A4E"/>
<stop offset="0.5" stop-color="#FED6A0"/>
<stop offset="1" stop-color="#B58A4E"/>
</linearGradient>
</defs>
</svg>
